<svg xmlns="http://www.w3.org/2000/svg" viewBox="0 0 12 9" width="12" height="9">
	<style>
		tspan { white-space:pre }
		.shp0 { fill: #f0454c } 
	</style>
	<g id="Content">
		<g id="Snippets">
			<g id="Peace Of Mind">
				<g id="More">
					<path id="Arrow" class="shp0" d="M1.34,5.3h7.99l-2.4,2.4c-0.25,0.25 -0.25,0.66 0,0.91c0.25,0.25 0.66,0.25 0.91,0l3.5,-3.5c0.12,-0.12 0.19,-0.29 0.19,-0.46c0,-0.17 -0.07,-0.34 -0.19,-0.46l-3.5,-3.5c-0.13,-0.13 -0.29,-0.19 -0.46,-0.19c-0.16,0 -0.33,0.06 -0.46,0.19c-0.25,0.25 -0.25,0.66 0,0.91l2.4,2.4h-7.99c-0.36,0 -0.64,0.29 -0.64,0.64c0,0.36 0.29,0.65 0.64,0.65z" />
				</g>
			</g>
		</g>
	</g>
</svg>